<svg width="64" height="64" viewBox="0 0 64 64" fill="none" xmlns="http://www.w3.org/2000/svg">
<path d="M49.6,12.8c-4.3,0-8,1.8-10.8,4.6c-2.8,2.8-4.6,6.5-4.6,10.8c0,4.3,1.8,8,4.6,10.8c2.8,2.8,6.5,4.6,10.8,4.6 c4.3,0,8-1.8,10.8-4.6c2.8-2.8,4.6-6.5,4.6-10.8c0-4.3-1.8-8-4.6-10.8C57.6,14.6,53.9,12.8,49.6,12.8z M49.6,39.4 c-2.9,0-5.5-1.2-7.4-3.1c-1.9-1.9-3.1-4.5-3.1-7.4c0-2.9,1.2-5.5,3.1-7.4c1.9-1.9,4.5-3.1,7.4-3.1c2.9,0,5.5,1.2,7.4,3.1 c1.9,1.9,3.1,4.5,3.1,7.4c0,2.9-1.2,5.5-3.1,7.4C55.1,38.2,52.5,39.4,49.6,39.4z" fill="#F97316"/>
<path d="M22.4,12.8h11.2v29.5H22.4V12.8z" fill="#F97316"/>
<path d="M12,42.3h33.6v8.4H12V42.3z" fill="#F97316"/>
</svg>
